<svg xmlns="http://www.w3.org/2000/svg" viewBox="0 0 800 600" role="img" aria-label="Trail runner shoe">
  <rect width="800" height="600" fill="#e8efe9"/>
  <path d="M125 365c70 12 141 5 214-21 45-16 83-38 116-66 20 31 51 51 92 61l111 26c35 8 56 26 62 54 3 16-7 31-24 36-108 31-223 42-344 33-98-7-181-28-249-63-18-9-23-31-11-46 8-10 19-15 33-14z" fill="#176b5d"/>
  <path d="M183 349c72 2 136-12 193-43 29-16 54-34 76-55 22 43 58 70 108 81l103 24c24 6 39 17 44 34-77 17-164 22-262 14-97-8-184-26-262-55z" fill="#f7f9f6"/>
  <path d="M248 323l67 36M323 298l66 38M397 259l62 42" stroke="#d96c46" stroke-width="20" stroke-linecap="round"/>
  <path d="M100 431c184 60 391 66 621 20" stroke="#1d2523" stroke-width="18" stroke-linecap="round"/>
</svg>
